<svg width="1371.84013671875px" height="430.42255859375px" xmlns="http://www.w3.org/2000/svg" viewBox="-435.920068359375 -140.211279296875 1371.84013671875 430.42255859375" style="background: rgb(0, 0, 0);" preserveAspectRatio="xMidYMid"><defs><filter id="editing-extrusion" x="-100%" y="-100%" width="300%" height="300%"><feFlood result="color1" flood-color="#c888c3"></feFlood><feConvolveMatrix order="16,16" divisor="1" kernelMatrix="1 0 0 0 0 0 0 0 0 0 0 0 0 0 0 0 0 1 0 0 0 0 0 0 0 0 0 0 0 0 0 0 0 0 1 0 0 0 0 0 0 0 0 0 0 0 0 0 0 0 0 1 0 0 0 0 0 0 0 0 0 0 0 0 0 0 0 0 1 0 0 0 0 0 0 0 0 0 0 0 0 0 0 0 0 1 0 0 0 0 0 0 0 0 0 0 0 0 0 0 0 0 1 0 0 0 0 0 0 0 0 0 0 0 0 0 0 0 0 1 0 0 0 0 0 0 0 0 0 0 0 0 0 0 0 0 1 0 0 0 0 0 0 0 0 0 0 0 0 0 0 0 0 1 0 0 0 0 0 0 0 0 0 0 0 0 0 0 0 0 1 0 0 0 0 0 0 0 0 0 0 0 0 0 0 0 0 1 0 0 0 0 0 0 0 0 0 0 0 0 0 0 0 0 1 0 0 0 0 0 0 0 0 0 0 0 0 0 0 0 0 1 0 0 0 0 0 0 0 0 0 0 0 0 0 0 0 0 1 0 0 0 0 0 0 0 0 0 0 0 0 0 0 0 0 1" in="SourceAlpha" result="extrude"></feConvolveMatrix><feComposite in="color1" in2="extrude" result="comp-extrude" operator="in"></feComposite><feOffset dx="8" dy="8" in="comp-extrude" result="offset-extrude"></feOffset><feMerge><feMergeNode in="offset-extrude"></feMergeNode><feMergeNode in="SourceGraphic"></feMergeNode></feMerge></filter></defs><g filter="url(#editing-extrusion)"><g transform="translate(-248.80001211166382, 166.10000610351562)"><path d="M7.60 0L7.60-171.80L54.20-171.80L54.20-171.80Q73-171.80 81.50-162.60L81.50-162.60L81.50-162.60Q90-153.40 90-132.60L90-132.60L90-125L90-125Q90-100.40 72.40-95.60L72.40-95.60L72.40-95.60Q83.20-92.80 87.60-82.60L87.60-82.60L87.60-82.60Q92-72.40 92-55.60L92-55.60L92-55.60Q92-28.20 83.80-14.10L83.80-14.10L83.80-14.10Q75.60 0 54.20 0L54.20 0L7.60 0ZM41.20-107.20L48.20-107.20L48.20-107.20Q52.60-107.20 54.20-110.50L54.20-110.50L54.20-110.50Q55.80-113.80 55.80-119.80L55.80-119.80L55.80-137L55.80-137Q55.80-145.40 48.40-145.40L48.40-145.40L41.20-145.40L41.20-107.20ZM44.60-30.20L44.60-30.20Q58-30.20 58-43L58-43L58-64.40L58-64.40Q58-72.20 55.70-76.20L55.70-76.20L55.70-76.20Q53.40-80.20 47.60-80.20L47.60-80.20L41.20-80.20L41.20-30.40L44.60-30.20ZM129.40 1.60L129.40 1.60Q112.40 1.60 106.10-9.70L106.10-9.70L106.10-9.70Q99.80-21 99.80-42L99.80-42L99.80-42Q99.80-59.20 104.30-68.40L104.30-68.40L104.30-68.40Q108.80-77.60 116.80-81.90L116.80-81.90L116.80-81.90Q124.80-86.20 141.20-91.40L141.20-91.40L150.80-94.60L150.80-95L150.80-109.60L150.80-109.60Q150.80-115.40 148.50-118.50L148.50-118.50L148.50-118.50Q146.20-121.60 143-121.60L143-121.60L143-121.60Q140.20-121.60 138.10-119L138.10-119L138.10-119Q136-116.40 136-112L136-112L136-103.20L102.00-103.20L102.00-108L102.00-108Q102.00-129.60 112.10-138.80L112.10-138.80L112.10-138.80Q122.20-148 145-148L145-148L145-148Q163.20-148 174.60-138.50L174.60-138.50L174.60-138.50Q186-129 186-111.60L186-111.60L186 0L151.20 0L151.20-17.40L151.20-17.40Q148.60-8.40 142.90-3.40L142.90-3.40L142.90-3.40Q137.20 1.60 129.40 1.60L129.40 1.60ZM143.20-25.60L143.20-25.60Q147.20-25.60 148.90-28.90L148.90-28.90L148.90-28.90Q150.60-32.20 150.60-37L150.60-37L150.60-77.80L150.60-77.80Q142.80-74.80 139.10-70.20L139.10-70.20L139.10-70.20Q135.40-65.60 135.40-57.40L135.40-57.40L135.40-38.60L135.40-38.60Q135.40-25.60 143.20-25.60L143.20-25.60ZM239.60 1.60L239.60 1.60Q196.20 1.60 196.20-42.40L196.20-42.40L196.40-54L231.40-54L231.60-36.80L231.60-36.80Q231.60-31.60 233.60-28.90L233.60-28.90L233.60-28.90Q235.60-26.20 240.20-26.20L240.20-26.20L240.20-26.20Q247.20-26.20 247.20-37.60L247.20-37.60L247.20-37.60Q247.20-46 243.90-50.80L243.90-50.80L243.90-50.80Q240.60-55.60 233.40-61L233.40-61L214.80-75.40L214.80-75.40Q205.20-82.80 201.00-90.70L201.00-90.70L201.00-90.70Q196.80-98.60 196.80-113L196.80-113L196.80-113Q196.80-124.20 202.70-132.10L202.70-132.10L202.70-132.10Q208.60-140 218.40-144L218.40-144L218.40-144Q228.20-148 240.20-148L240.20-148L240.20-148Q282.80-148 282.80-105.60L282.80-105.60L282.80-102.80L246.60-102.80L246.60-108.40L246.60-108.40Q246.60-113.60 244.90-117.30L244.90-117.30L244.90-117.30Q243.20-121 239.20-121L239.20-121L239.20-121Q235.60-121 233.70-118.90L233.70-118.90L233.70-118.90Q231.80-116.80 231.80-113.20L231.80-113.20L231.80-113.20Q231.80-105.20 238.00-100.80L238.00-100.80L259.60-85L259.60-85Q271.20-76.40 277.40-66.30L277.40-66.30L277.40-66.30Q283.60-56.20 283.60-40.80L283.60-40.80L283.60-40.80Q283.60-20.40 272.00-9.40L272.00-9.40L272.00-9.40Q260.40 1.60 239.60 1.60L239.60 1.60ZM329.20-156.20L294.20-156.20L294.20-180.60L329.20-180.60L329.20-156.20ZM329.20 0L294.20 0L294.20-146.40L329.20-146.40L329.20 0ZM387.00 1.60L387.00 1.60Q363.00 1.60 352.40-10.60L352.40-10.60L352.40-10.60Q341.80-22.80 341.80-48L341.80-48L341.80-93.20L341.80-93.20Q341.80-112.20 345.90-124.10L345.90-124.10L345.90-124.10Q350.00-136 359.70-142L359.70-142L359.70-142Q369.40-148 386.60-148L386.60-148L386.60-148Q405.40-148 417.20-138.20L417.20-138.20L417.20-138.20Q429.00-128.40 429.00-110.80L429.00-110.80L429.00-88.40L393.40-88.40L393.40-109L393.40-109Q393.40-114.80 391.80-117.90L391.80-117.90L391.80-117.90Q390.20-121 385.60-121L385.60-121L385.60-121Q377.00-121 377.00-108.80L377.00-108.80L377.00-37.80L377.00-37.80Q377.00-32.80 379.10-29.30L379.10-29.30L379.10-29.30Q381.20-25.80 385.40-25.80L385.40-25.80L385.40-25.80Q389.60-25.80 391.70-29.20L391.70-29.20L391.70-29.20Q393.80-32.60 393.60-38L393.60-38L393.40-62.60L429.00-62.60L429.00-37L429.00-37Q429.00-19 417.30-8.70L417.30-8.70L417.30-8.70Q405.60 1.60 387.00 1.60L387.00 1.60ZM537.80 0L503.40 0L503.40-138.80L483.00-138.80L483.00-171.80L558.20-171.80L558.20-138.80L537.80-138.80L537.80 0ZM616.40-49.80L566-49.80L566-72.40L616.40-72.40L616.40-49.80ZM670.80 1.60L670.80 1.60Q647.40 1.60 637.00-10L637.00-10L637.00-10Q626.60-21.60 626.60-47.40L626.60-47.40L626.60-64.20L660.40-64.20L660.40-42.80L660.40-42.80Q660.40-30 668.60-30L668.60-30L668.60-30Q673.20-30 675.00-32.70L675.00-32.70L675.00-32.70Q676.80-35.40 676.80-41.80L676.80-41.80L676.80-41.80Q676.80-50.20 674.80-55.70L674.80-55.70L674.80-55.70Q672.80-61.20 669.70-64.90L669.70-64.90L669.70-64.90Q666.60-68.60 658.60-76.40L658.60-76.40L643.80-91.20L643.80-91.20Q626.60-108 626.60-128.40L626.60-128.40L626.60-128.40Q626.60-150.40 636.70-161.90L636.70-161.90L636.70-161.90Q646.80-173.40 666.20-173.40L666.20-173.40L666.20-173.40Q689.40-173.40 699.60-161.10L699.60-161.10L699.60-161.10Q709.80-148.80 709.80-122.60L709.80-122.60L674.80-122.60L674.60-134.40L674.60-134.40Q674.60-137.80 672.70-139.80L672.70-139.80L672.70-139.80Q670.80-141.80 667.40-141.80L667.40-141.80L667.40-141.80Q663.40-141.80 661.40-139.60L661.40-139.60L661.40-139.60Q659.40-137.40 659.40-133.60L659.40-133.60L659.40-133.60Q659.40-125.20 669.00-116.20L669.00-116.20L689.00-97L689.00-97Q696.00-90.20 700.60-84.10L700.60-84.10L700.60-84.10Q705.20-78 708.00-69.70L708.00-69.70L708.00-69.70Q710.80-61.40 710.80-50L710.80-50L710.80-50Q710.80-24.60 701.50-11.50L701.50-11.50L701.50-11.50Q692.20 1.60 670.80 1.60L670.80 1.60ZM721.60 0L721.60-172.80L757.60-172.80L757.60-132L757.60-132Q763.20-148 779.00-148L779.00-148L779.00-148Q793.80-148 801.40-138.60L801.40-138.60L801.40-138.60Q809.00-129.20 809.00-112.80L809.00-112.80L809.00 0L774.00 0L774.00-110.60L774.00-110.60Q774.00-115.40 771.80-118.40L771.80-118.40L771.80-118.40Q769.60-121.40 765.40-121.40L765.40-121.40L765.40-121.40Q761.80-121.40 759.70-118.30L759.70-118.30L759.70-118.30Q757.60-115.20 757.60-110.80L757.60-110.80L757.60 0L721.60 0ZM857.40-156.20L822.40-156.20L822.40-180.60L857.40-180.60L857.40-156.20ZM857.40 0L822.40 0L822.40-146.40L857.40-146.40L857.40 0ZM871.20 0L871.20-146.40L906.20-146.40L906.20-130.20L906.20-130.20Q908.80-138.80 915.30-143.50L915.30-143.50L915.30-143.50Q921.80-148.20 931.40-148.20L931.40-148.20L931.40-119L931.40-119Q924.00-119 915.10-116.90L915.10-116.90L915.10-116.90Q906.20-114.80 906.20-112L906.20-112L906.20 0L871.20 0ZM970.20 1.60L970.20 1.60Q956.40 1.60 951.20-4.20L951.20-4.20L951.20-4.20Q946.00-10 946.00-22.80L946.00-22.80L946.00-114.20L936.20-114.20L936.20-140.80L946.00-140.80L946.00-171.80L980.00-171.80L980.00-140.80L990.00-140.80L990.00-114.20L980.00-114.20L980.00-32L980.00-32Q980.00-28.20 980.60-26.40L980.60-26.40L980.60-26.40Q981.20-24.60 983.80-24.60L983.80-24.60L983.80-24.60Q985.80-24.60 987.60-24.80L987.60-24.80L987.60-24.80Q989.40-25 990.00-25L990.00-25L990.00-1L990.00-1Q987.00-0.20 981.30 0.70L981.30 0.70L981.30 0.70Q975.60 1.60 970.20 1.60L970.20 1.60Z" fill="#ffffff"></path></g></g><style>text {
  font-size: 64px;
  font-family: Arial Black;
  dominant-baseline: central;
  text-anchor: middle;
}</style></svg>